<?xml version="1.0" standalone="no"?>
<!DOCTYPE svg PUBLIC "-//W3C//DTD SVG 20010904//EN"
 "http://www.w3.org/TR/2001/REC-SVG-20010904/DTD/svg10.dtd">
<svg version="1.0" xmlns="http://www.w3.org/2000/svg"
 width="668.000000pt" height="668.000000pt" viewBox="0 0 668.000000 668.000000"
 preserveAspectRatio="xMidYMid meet">
<metadata>
</metadata>
<g transform="translate(0.000000,668.000000) scale(0.100000,-0.100000)"
fill="#000000" stroke="none">
<path d="M1094 5579 c-3 -6 -1 -16 5 -22 16 -16 16 -1078 -1 -1095 -9 -9 -9
-15 0 -24 9 -9 15 -9 24 0 17 17 1069 17 1086 0 9 -9 15 -9 24 0 9 9 9 15 0
24 -17 17 -17 1079 0 1096 9 9 9 15 0 24 -9 9 -15 9 -24 0 -16 -16 -1073 -18
-1083 -2 -8 13 -22 13 -31 -1z"/>
<path d="M3324 5579 c-10 -17 13 -36 27 -22 12 12 4 33 -11 33 -5 0 -12 -5
-16 -11z"/>
<path d="M4444 5579 c-3 -6 -1 -16 5 -22 16 -16 16 -1078 -1 -1095 -9 -9 -9
-15 0 -24 9 -9 15 -9 24 0 17 17 1069 17 1086 0 9 -9 15 -9 24 0 9 9 9 15 0
24 -17 17 -17 1079 0 1096 9 9 9 15 0 24 -9 9 -15 9 -24 0 -16 -16 -1073 -18
-1083 -2 -8 13 -22 13 -31 -1z"/>
<path d="M3324 4459 c-10 -17 13 -36 27 -22 12 12 4 33 -11 33 -5 0 -12 -5
-16 -11z"/>
<path d="M1094 3340 c-7 -7 -195 -9 -552 -8 l-542 3 0 -560 0 -560 541 3 c394
2 545 -1 555 -9 19 -16 21 -1078 2 -1097 -9 -9 -9 -15 0 -24 9 -9 15 -9 24 0
17 17 1069 17 1086 0 9 -9 15 -9 24 0 17 17 1079 17 1096 0 9 -9 15 -9 24 0
17 17 1079 17 1096 0 9 -9 15 -9 24 0 17 17 1069 17 1086 0 9 -9 15 -9 24 0 9
9 9 15 0 24 -19 19 -17 1081 2 1097 10 8 161 11 555 9 l541 -3 0 560 0 560
-541 -3 c-404 -2 -545 1 -556 9 -19 17 -43 -5 -25 -23 17 -17 17 -1069 0
-1086 -17 -17 -1069 -17 -1086 0 -9 9 -15 9 -24 0 -17 -17 -1079 -17 -1096 0
-9 9 -15 9 -24 0 -17 -17 -1079 -17 -1096 0 -9 9 -15 9 -24 0 -17 -17 -1069
-17 -1086 0 -17 17 -17 1069 -1 1085 6 6 8 16 5 22 -9 14 -19 14 -32 1z"/>
<path d="M2204 3339 c-10 -17 13 -36 27 -22 12 12 4 33 -11 33 -5 0 -12 -5
-16 -11z"/>
<path d="M3324 3339 c-10 -17 13 -36 27 -22 12 12 4 33 -11 33 -5 0 -12 -5
-16 -11z"/>
<path d="M4444 3339 c-10 -17 13 -36 27 -22 12 12 4 33 -11 33 -5 0 -12 -5
-16 -11z"/>
</g>
</svg>
